#!OML:ASF H:\Terrain\Patient Classification 1\Animal2\Wednesday\Animal2.ASF
:FULLY-SPECIFIED
:DEGREES
2694
root 2.22351 18.5713 6.97389 5.6953 -24.8148 -362.129
lowerback 2.13763 -4.15918 1.85062
upperback -6.37277 -5.36188 2.36999
thorax -7.80797 -2.69076 1.93367
lowerneck -1.17987 5.23421 14.7537
upperneck 5.82828 7.96452 -22.1355
head 3.40751 3.6906 -9.15025
rclavicle -4.80562e-014 -7.95139e-015
rhumerus -31.9568 -0.655887 -85.2435
rradius 20.7791
rwrist 20.6924
rhand -17.416 6.49467
rfingers 7.12502
rthumb 8.83392 -23.3004
lclavicle -4.80562e-014 -7.95139e-015
lhumerus -45.7753 -30.0189 105.243
lradius 49.2723
lwrist 45.7942
lhand -32.5576 52.8307
lfingers 7.12502
lthumb -5.7871 82.7316
rfemur -10.954 -11.6135 23.486
rtibia 24.0418
rfoot -4.1574 -9.23096
rtoes 2.434
lfemur -4.03698 4.94924 -17.9923
ltibia 22.9435
lfoot -6.30839 11.3571
ltoes -21.5942
2695
root 2.28026 18.5862 6.92322 6.41725 -24.6007 -362.548
lowerback 1.95639 -4.17626 1.99697
upperback -6.51766 -5.3798 2.39951
thorax -7.87061 -2.70919 1.87989
lowerneck -1.52714 5.19452 14.7761
upperneck 6.10464 7.90907 -22.0841
head 3.53592 3.63764 -9.13463
rclavicle 9.49694e-014 1.59028e-015
rhumerus -32.0259 -0.856754 -85.0469
rradius 20.6465
rwrist 20.986
rhand -17.5732 6.59077
rfingers 7.12502
rthumb 8.68218 -23.2107
lclavicle 9.49694e-014 1.59028e-015
lhumerus -45.4589 -30.15 104.908
lradius 49.8691
lwrist 45.8098
lhand -32.4659 52.6781
lfingers 7.12502
lthumb -5.69855 82.5815
rfemur -11.6276 -11.8273 24.1181
rtibia 23.5669
rfoot -3.67767 -9.9756
rtoes 0.646413
lfemur -5.15658 4.7511 -18.0008
ltibia 23.1666
lfoot -6.631 12.4567
ltoes -19.1912
2696
root 2.33703 18.5799 6.88674 6.532 -24.6271 -363.122
lowerback 2.28632 -4.21029 2.28548
upperback -6.4355 -5.39605 2.4105
thorax -8.0019 -2.73166 1.75932
lowerneck -1.50397 5.19613 14.9115
upperneck 6.0062 7.89544 -22.1087
head 3.50771 3.63768 -9.16837
rclavicle 9.88954e-014 -3.18055e-015
rhumerus -32.1301 -0.606136 -85.1287
rradius 20.7315
rwrist 21.0796
rhand -17.4729 6.70101
rfingers 7.12502
rthumb 8.77906 -23.0964
lclavicle 9.88954e-014 -3.18055e-015
lhumerus -45.2461 -30.1469 104.454
lradius 50.4283
lwrist 45.9104
lhand -32.5862 52.5446
lfingers 7.12502
lthumb -5.81467 82.4448
rfemur -11.4248 -11.6828 24.5962
rtibia 23.2059
rfoot -3.71561 -10.5172
rtoes 1.10178
lfemur -5.40254 5.24694 -17.8225
ltibia 23.3783
lfoot -6.80191 12.8577
ltoes -19.4948
2697
root 2.39433 18.5798 6.85558 6.81094 -24.5258 -363.526
lowerback 2.30557 -4.29474 2.43971
upperback -6.33769 -5.50071 2.40539
thorax -7.92285 -2.79255 1.67474
lowerneck -1.65752 5.21603 15.1504
upperneck 5.88612 7.89262 -22.2805
head 3.51796 3.63191 -9.26766
rclavicle -7.76254e-014 1.78906e-014
rhumerus -32.1081 -0.394138 -85.213
rradius 20.8455
rwrist 21.0393
rhand -17.3048 6.76858
rfingers 7.12502
rthumb 8.94122 -23.022
lclavicle -7.76254e-014 1.78906e-014
lhumerus -44.8782 -30.1279 103.816
lradius 51.022
lwrist 45.9938
lhand -32.2385 52.2559
lfingers 7.12502
lthumb -5.47901 82.165
rfemur -11.4929 -11.8226 24.93
rtibia 22.9152
rfoot -4.54492 -10.8931
rtoes 4.04452
lfemur -5.90802 5.53882 -17.8566
ltibia 23.6266
lfoot -6.61153 13.5356
ltoes -21.6941
2698
root 2.45049 18.5769 6.8122 7.26074 -24.3717 -363.821
lowerback 2.27051 -4.33114 2.37398
upperback -6.41368 -5.54752 2.52617
thorax -7.96591 -2.80833 1.84301
lowerneck -1.80453 5.16228 14.8795
upperneck 6.02234 7.82667 -22.2414
head 3.55703 3.58054 -9.20721
rclavicle 4.14466e-014 5.96354e-015
rhumerus -32.1827 -0.656236 -84.7713
rradius 20.845
rwrist 21.3728
rhand -17.2283 7.15848
rfingers 7.12502
rthumb 9.01507 -22.6289
lclavicle 4.14466e-014 5.96354e-015
lhumerus -44.5343 -29.8996 103.511
lradius 51.3913
lwrist 45.7676
lhand -31.5778 52.2052
lfingers 7.12502
lthumb -4.84106 82.1299
rfemur -11.8931 -12.0922 25.2679
rtibia 22.7791
rfoot -5.91264 -11.2587
rtoes 9.57788
lfemur -6.66297 5.17006 -17.9349
ltibia 23.8039
lfoot -7.11893 14.6048
ltoes -19.6599
2699
root 2.50268 18.5577 6.76271 7.4692 -24.2631 -364.029
lowerback 2.53281 -4.379 2.11435
upperback -6.4865 -5.61087 2.65015
thorax -8.15878 -2.81725 2.14959
lowerneck -1.7824 5.12224 14.5877
upperneck 6.01476 7.77215 -22.1321
head 3.52349 3.55015 -9.11954
rclavicle 9.52676e-014 7.95139e-016
rhumerus -32.3575 -0.667539 -84.4207
rradius 20.8837
rwrist 21.4653
rhand -17.2536 7.47469
rfingers 7.12502
rthumb 8.99062 -22.3137
lclavicle 9.52676e-014 7.95139e-016
lhumerus -44.2588 -29.5285 103.299
lradius 51.4677
lwrist 45.4083
lhand -31.4052 52.2987
lfingers 7.12502
lthumb -4.67442 82.2272
rfemur -12.1124 -12.0563 25.4865
rtibia 22.8575
rfoot -7.14355 -11.7736
rtoes 12.5047
lfemur -7.0711 4.91503 -18.0128
ltibia 23.809
lfoot -7.79594 15.3874
ltoes -18.6742
2700
root 2.55579 18.5345 6.72349 7.38335 -24.3602 -364.063
lowerback 2.84084 -4.31808 1.81331
upperback -6.39484 -5.54321 2.59544
thorax -8.2151 -2.76437 2.27217
lowerneck -1.6934 5.0582 14.4833
upperneck 5.64236 7.6308 -22.0334
head 3.36537 3.49687 -9.07326
rclavicle 6.22444e-014 -2.36554e-014
rhumerus -32.385 -0.784129 -84.27
rradius 20.8511
rwrist 21.1952
rhand -17.3988 7.54397
rfingers 7.12502
rthumb 8.85049 -22.2504
lclavicle 6.22444e-014 -2.36554e-014
lhumerus -44.1017 -29.7694 103.115
lradius 51.6435
lwrist 45.4696
lhand -31.6974 52.0924
lfingers 7.12502
lthumb -4.95656 82.0145
rfemur -12.0883 -11.7681 25.3792
rtibia 23.1487
rfoot -8.33426 -12.2263
rtoes 13.1348
lfemur -7.07054 4.90161 -18.2265
ltibia 23.7237
lfoot -8.69563 15.7021
ltoes -16.5919
2701
root 2.61394 18.5143 6.67745 7.46506 -24.2179 -364.057
lowerback 2.97967 -4.35744 1.59592
upperback -6.3333 -5.61162 2.5352
thorax -8.21215 -2.78549 2.34313
lowerneck -1.40559 4.99706 14.3081
upperneck 4.99256 7.47285 -21.9176
head 3.08712 3.45327 -9.0117
rclavicle 1.57711e-013 7.35503e-015
rhumerus -32.2601 -1.11872 -84.0745
rradius 20.7032
rwrist 21.05
rhand -17.6472 7.86183
rfingers 7.12502
rthumb 8.61085 -21.9426
lclavicle 1.57711e-013 7.35503e-015
lhumerus -43.9404 -30.204 102.871
lradius 51.9267
lwrist 45.8391
lhand -32.0285 51.9936
lfingers 7.12502
lthumb -5.27627 81.9079
rfemur -12.2322 -11.4359 25.2658
rtibia 23.5491
rfoot -9.90447 -13.1631
rtoes 16.3628
lfemur -7.35424 4.49566 -18.4347
ltibia 23.6418
lfoot -9.54068 15.975
ltoes -13.501
2702
root 2.66799 18.4711 6.63942 7.34848 -24.3221 -364.23
lowerback 3.21461 -4.40284 1.50553
upperback -6.12202 -5.67609 2.49675
thorax -8.1135 -2.81188 2.36567
lowerneck -1.27082 5.04697 14.3327
upperneck 4.53214 7.48536 -21.9182
head 2.93637 3.48079 -9.01494
rclavicle -7.97748e-014 -1.45113e-014
rhumerus -32.0914 -1.55274 -83.9206
rradius 20.5888
rwrist 21.2062
rhand -17.7225 8.05299
rfingers 7.12502
rthumb 8.53812 -21.7544
lclavicle -7.97748e-014 -1.45113e-014
lhumerus -43.538 -30.1678 102.279
lradius 51.976
lwrist 45.8705
lhand -32.1326 52.1911
lfingers 7.12502
lthumb -5.37678 82.1029
rfemur -12.0808 -11.5092 25.3539
rtibia 24.033
rfoot -10.865 -14.6997
rtoes 15.6329
lfemur -7.2299 4.31875 -18.4386
ltibia 23.5361
lfoot -10.0456 16.4963
ltoes -14.6266
